<svg width="512" height="512" fill="none" xmlns="http://www.w3.org/2000/svg"><path d="M256 512c141.385 0 256-114.615 256-256S397.385 0 256 0 0 114.615 0 256s114.615 256 256 256z" fill="#fff"/><path d="m150.988 237.823-2.866 4.397c-32.326 49.589-25.106 114.534 17.358 156.14 24.981 24.476 57.722 36.717 90.465 36.721L150.988 237.823z" fill="#D219B8"/><path opacity=".6" d="m255.93 297.776-104.956-59.953L255.93 435.081V297.776zM361.008 237.823l2.865 4.397c32.326 49.589 25.107 114.534-17.357 156.14-24.981 24.476-57.722 36.717-90.464 36.721l104.956-197.258z" fill="#D219B8"/><path opacity=".2" d="m256.036 297.776 104.956-59.953C256.039 435.081 256.036 435.081 256.036 435.081V297.776zM256.073 163.849v103.399l90.409-51.667-90.409-51.732z" fill="#D219B8"/><path opacity=".6" d="m256.072 163.849-90.473 51.732 90.473 51.667V163.849z" fill="#D219B8"/><path d="m256.072 76.875-90.473 138.724 90.473-51.877V76.875z" fill="#D219B8"/><path opacity=".6" d="m256.073 163.716 90.477 51.879-90.477-138.793v86.914z" fill="#D219B8"/></svg>