<svg width="512" height="512" viewBox="0 0 512 512" fill="none" xmlns="http://www.w3.org/2000/svg">
<path d="M256 512C397.385 512 512 397.385 512 256C512 114.615 397.385 0 256 0C114.615 0 0 114.615 0 256C0 397.385 114.615 512 256 512Z" fill="white"/>
<path d="M150.988 237.823L148.122 242.22C115.796 291.809 123.016 356.754 165.48 398.361C190.461 422.836 223.202 435.077 255.945 435.082C255.945 435.082 255.945 435.082 150.988 237.823Z" fill="#666666"/>
<path opacity="0.6" d="M255.93 297.776L150.974 237.823C255.93 435.082 255.93 435.082 255.93 435.082C255.93 392.121 255.93 342.892 255.93 297.776Z" fill="#666666"/>
<path opacity="0.6" d="M361.008 237.823L363.873 242.22C396.199 291.809 388.98 356.754 346.516 398.361C321.535 422.836 288.794 435.077 256.052 435.082C256.052 435.082 256.052 435.082 361.008 237.823Z" fill="#666666"/>
<path opacity="0.2" d="M256.036 297.776L360.992 237.823C256.039 435.082 256.036 435.082 256.036 435.082C256.036 392.121 256.036 342.892 256.036 297.776Z" fill="#666666"/>
<path opacity="0.2" d="M256.073 163.849V267.248L346.481 215.581L256.073 163.849Z" fill="#666666"/>
<path opacity="0.6" d="M256.073 163.849L165.599 215.581L256.073 267.248V163.849Z" fill="#666666"/>
<path d="M256.073 76.875L165.599 215.599L256.073 163.722V76.875Z" fill="#666666"/>
<path opacity="0.6" d="M256.073 163.716L346.55 215.595L256.073 76.8021V163.716Z" fill="#666666"/>
</svg>
