<svg xmlns="http://www.w3.org/2000/svg" width="40" height="40" viewBox="0 0 30 30"><defs><linearGradient id="a" gradientUnits="userSpaceOnUse" x1=".972" y1=".031" x2="0" y2=".997" gradientTransform="matrix(29.82813 0 0 29.76172 .094 .195)"><stop offset="0" style="stop-color:#11c4d1;stop-opacity:1"/><stop offset="1" style="stop-color:#0062ad;stop-opacity:1"/></linearGradient></defs><path style="stroke:none;fill-rule:nonzero;fill:url(#a)" d="M29.922 20.582s0 3.11-.332 4.445a6.25 6.25 0 0 1-1.64 2.97c-.696.69-1.614 1.32-3 1.648-1.407.328-4.438.312-4.438.312H9.488s-3.11 0-4.453-.328c-1.34-.344-2.289-.957-2.98-1.649-.696-.69-1.328-1.601-1.645-3-.332-1.398-.316-4.414-.316-4.414V9.57s0-3.11.332-4.445A6.24 6.24 0 0 1 2.07 2.156c.692-.691 1.61-1.316 3-1.648C6.473.18 9.504.195 9.504.195h11.023s3.11 0 4.453.328c1.34.348 2.29.957 2.985 1.649.691.691 1.324 1.605 1.64 3 .317 1.398.317 4.414.317 4.414zm0 0"/><path style="stroke:none;fill-rule:nonzero;fill:#fff;fill-opacity:1" d="M25.246 9.29c.617 8.464-5.035 12.487-10.105 12.925-4.704.41-9.125-2.356-9.504-6.645-.317-3.53 1.957-5.054 3.742-5.199 1.832-.156 3.363 1.055 3.504 2.531.129 1.414-.79 2.07-1.434 2.121-.508.047-1.136-.253-1.203-.882-.047-.547.176-.61.113-1.192-.097-1.039-1.027-1.148-1.53-1.101-.618.047-1.74.754-1.599 2.484.16 1.742 1.895 3.125 4.168 2.918 2.465-.219 4.188-2.055 4.313-4.648 0-.141.031-.266.094-.391.03-.047.047-.094.093-.14.067-.098.13-.176.207-.255l.223-.218c1.07-.973 4.957-3.297 8.602-2.575.035 0 .066.016.082.032.14 0 .218.11.234.234"/></svg>