<svg width="128" height="128" xmlns="http://www.w3.org/2000/svg"><path d="M90.847 57.761a5.83 5.83 0 1 1 8.246-8.246 5.83 5.83 0 0 1-8.246 8.246ZM71.263 77.345a4.373 4.373 0 1 1 6.184-6.184 4.373 4.373 0 0 1-6.184 6.184Zm30.922-10.307a4.373 4.373 0 1 1 6.184-6.185 4.373 4.373 0 0 1-6.184 6.185ZM91.878 77.345a4.373 4.373 0 1 1 6.184-6.184 4.373 4.373 0 0 1-6.184 6.184Zm21.645-1.03a2.915 2.915 0 1 1 4.123-4.124 2.915 2.915 0 0 1-4.123 4.123Zm-10.307 10.307a2.915 2.915 0 1 1 4.123-4.123 2.915 2.915 0 0 1-4.123 4.123ZM80.54 68.068a5.83 5.83 0 1 1 8.246-8.246 5.83 5.83 0 0 1-8.246 8.246Zm0-20.614a5.83 5.83 0 1 1 8.246-8.246 5.83 5.83 0 0 1-8.246 8.246ZM70.232 57.76a5.83 5.83 0 1 1 8.246-8.246 5.83 5.83 0 0 1-8.246 8.246Zm-20.71 0a5.83 5.83 0 1 1 8.246-8.246 5.83 5.83 0 0 1-8.246 8.246ZM29.938 77.345a4.373 4.373 0 1 1 6.184-6.184 4.373 4.373 0 0 1-6.184 6.184ZM60.86 67.038a4.373 4.373 0 1 1 6.184-6.185 4.373 4.373 0 0 1-6.184 6.185ZM50.553 77.345a4.373 4.373 0 1 1 6.184-6.184 4.373 4.373 0 0 1-6.184 6.184Zm-40.2-1.03a2.915 2.915 0 1 1 4.124-4.124 2.915 2.915 0 0 1-4.123 4.123Zm10.308 10.307a2.915 2.915 0 1 1 4.123-4.123 2.915 2.915 0 0 1-4.123 4.123Zm41.23 0a2.915 2.915 0 1 1 4.123-4.123 2.915 2.915 0 0 1-4.123 4.123ZM19.63 67.038a4.373 4.373 0 1 1 6.184-6.185 4.373 4.373 0 0 1-6.184 6.185Zm19.583 1.03a5.83 5.83 0 1 1 8.246-8.246 5.83 5.83 0 0 1-8.246 8.246Zm0-20.614a5.83 5.83 0 1 1 8.246-8.246 5.83 5.83 0 0 1-8.246 8.246ZM28.907 57.76a5.83 5.83 0 1 1 8.246-8.246 5.83 5.83 0 0 1-8.246 8.246Z" fill="#000" fill-rule="evenodd"/></svg>
