<svg width="40" height="40" fill="none" xmlns="http://www.w3.org/2000/svg"><path d="m34.413 4.457-12.492 9.278 2.31-5.474 10.182-3.804z" fill="#E2761B" stroke="#E2761B" stroke-linecap="round" stroke-linejoin="round"/><path d="m5.575 4.457 12.391 9.366-2.197-5.562L5.575 4.457zm24.344 21.507-3.327 5.097 7.118 1.959 2.047-6.943-5.838-.113zm-25.663.113L6.29 33.02l7.119-1.959-3.327-5.097-5.826.113z" fill="#E4761B" stroke="#E4761B" stroke-linecap="round" stroke-linejoin="round"/><path d="m13.007 17.351-1.984 3 7.069.315-.251-7.596-4.834 4.281zm13.973-.001-4.896-4.369-.163 7.684 7.056-.314-1.997-3zM13.41 31.061l4.243-2.072-3.666-2.862-.578 4.934zm8.925-2.071 4.257 2.071-.59-4.934-3.667 2.863z" fill="#E4761B" stroke="#E4761B" stroke-linecap="round" stroke-linejoin="round"/><path d="m26.591 31.06-4.256-2.07.339 2.774-.038 1.168 3.955-1.871zm-13.182 0 3.954 1.872-.025-1.168.314-2.775-4.243 2.072z" fill="#D7C1B3" stroke="#D7C1B3" stroke-linecap="round" stroke-linejoin="round"/><path d="m17.426 24.294-3.54-1.042 2.498-1.143 1.042 2.185zm5.135 0 1.042-2.185 2.511 1.143-3.553 1.042z" fill="#233447" stroke="#233447" stroke-linecap="round" stroke-linejoin="round"/><path d="m13.409 31.061.602-5.097-3.93.113 3.328 4.984zm12.579-5.097.603 5.097 3.327-4.984-3.93-.113zm2.989-5.612-7.056.314.653 3.628 1.042-2.184 2.51 1.142 2.85-2.9zm-15.091 2.9 2.51-1.142 1.03 2.184.665-3.628-7.068-.314 2.863 2.9z" fill="#CD6116" stroke="#CD6116" stroke-linecap="round" stroke-linejoin="round"/><path d="m11.023 20.352 2.963 5.775-.1-2.875-2.863-2.9zm15.104 2.9-.125 2.875 2.975-5.775-2.85 2.9zm-8.035-2.586-.666 3.628.829 4.282.188-5.637-.351-2.273zm3.829 0-.339 2.26.15 5.65.842-4.282-.653-3.628z" fill="#E4751F" stroke="#E4751F" stroke-linecap="round" stroke-linejoin="round"/><path d="m22.574 24.294-.842 4.28.603.415 3.666-2.862.126-2.875-3.553 1.042zm-8.688-1.042.1 2.875 3.666 2.862.603-.414-.829-4.281-3.54-1.043z" fill="#F6851B" stroke="#F6851B" stroke-linecap="round" stroke-linejoin="round"/><path d="m22.637 32.931.037-1.167-.314-.277h-4.733l-.289.277.025 1.167-3.954-1.87 1.38 1.13 2.8 1.945h4.809l2.812-1.946 1.381-1.13-3.954 1.871z" fill="#C0AD9E" stroke="#C0AD9E" stroke-linecap="round" stroke-linejoin="round"/><path d="m22.335 28.99-.602-.415h-3.478l-.603.415-.314 2.774.29-.276h4.732l.314.276-.339-2.774z" fill="#161616" stroke="#161616" stroke-linecap="round" stroke-linejoin="round"/><path d="m34.94 14.338 1.068-5.123-1.595-4.758-12.078 8.964 4.646 3.93 6.566 1.92 1.456-1.694-.627-.452 1.004-.917-.778-.602 1.004-.766-.665-.502zM3.993 9.215l1.067 5.123-.678.502 1.004.766-.766.602 1.005.917-.628.452 1.444 1.695 6.566-1.921 4.645-3.93L5.575 4.457 3.993 9.215z" fill="#763D16" stroke="#763D16" stroke-linecap="round" stroke-linejoin="round"/><path d="m33.547 19.271-6.567-1.92 1.997 3L26 26.127l3.917-.05h5.838l-2.21-6.806zm-20.54-1.921-6.566 1.921-2.185 6.805h5.826l3.904.05-2.963-5.775 1.984-3zm8.914 3.316.414-7.245 1.909-5.16h-8.475l1.883 5.16.44 7.245.15 2.285.013 5.624h3.478l.025-5.624.163-2.285z" fill="#F6851B" stroke="#F6851B" stroke-linecap="round" stroke-linejoin="round"/></svg>