<svg width="40" height="40" fill="none" xmlns="http://www.w3.org/2000/svg"><path fill-rule="evenodd" clip-rule="evenodd" d="M.89 8.827C0 11.173 0 14.115 0 20s0 8.827.89 11.173a13.682 13.682 0 0 0 7.937 7.937C11.173 40 14.115 40 20 40s8.827 0 11.173-.89a13.682 13.682 0 0 0 7.937-7.937C40 28.827 40 25.885 40 20s0-8.827-.89-11.173A13.682 13.682 0 0 0 31.173.89C28.827 0 25.885 0 20 0S11.173 0 8.827.89A13.682 13.682 0 0 0 .89 8.827zm18.242 23.745c.29.142.579.285.868.285.29 0 .579 0 .723-.143 1.302-.856 2.315-1.426 3.328-1.997 5.497-2.996 7.088-4.565 7.378-19.259 0-.428-.145-.713-.434-.998-.29-.286-.58-.428-1.013-.428h-.29c-1.446 0-5.352 0-8.824-2.568-.434-.428-1.157-.428-1.736 0-3.472 2.568-7.378 2.568-8.825 2.568h-.289c-.29 0-.723.142-1.013.285-.289.285-.434.57-.434.999.145 14.693 1.736 16.263 7.234 19.259.22.123.446.247.678.374.837.457 1.743.953 2.649 1.623zm-1.921-4.304c-4.163-2.406-5.458-3.154-5.746-15.383 2.025-.143 5.642-.57 8.535-2.568 3.183 2.14 6.22 2.425 8.246 2.568-.29 12.268-1.447 12.982-5.787 15.407a52.1 52.1 0 0 0-.868.53c-.521.323-1.1.681-1.736 1.04a46.074 46.074 0 0 0-2.049-1.245l-.555-.325-.04-.024z" fill="#4276B6"/></svg>