<svg width="40" height="25" fill="none" xmlns="http://www.w3.org/2000/svg"><path d="M8.192 4.834c6.522-6.385 17.095-6.385 23.617 0l.784.769a.805.805 0 0 1 0 1.156l-2.685 2.629a.424.424 0 0 1-.59 0l-1.08-1.058c-4.55-4.454-11.926-4.454-16.475 0l-1.157 1.133a.424.424 0 0 1-.59 0L7.33 6.833a.805.805 0 0 1 0-1.155l.861-.844zm29.17 5.437 2.389 2.34a.805.805 0 0 1 0 1.155l-10.775 10.55a.848.848 0 0 1-1.18 0l-7.648-7.487a.212.212 0 0 0-.295 0l-7.647 7.487a.848.848 0 0 1-1.181 0L.25 13.766a.805.805 0 0 1 0-1.156l2.39-2.34a.848.848 0 0 1 1.18 0l7.648 7.488c.081.08.213.08.295 0l7.647-7.487a.848.848 0 0 1 1.18 0l7.648 7.487c.082.08.214.08.295 0l7.647-7.487a.848.848 0 0 1 1.181 0z" fill="#3B99FC"/></svg>